{
  "source": "C:\\Users\\Peter\\Desktop\\stuff\\MIUN\\quantitative_research\\video_compression\\videos\\BVI-HD\\BVI-HD_CDVL_videos\\ORIG\\PlasmaAveragePan_1920x1080_60fps.mp4",
  "output": "C:\\Users\\Peter\\Desktop\\stuff\\MIUN\\quantitative_research\\video_compression\\compressed_videos\\BVI-HD\\h264\\2\\PlasmaAveragePan_1920x1080_60fps_h264.mp4",
  "codec": "h264",
  "ok": "Input #0, mov,mp4,m4a,3gp,3g2,mj2, from 'C:\\Users\\Peter\\Desktop\\stuff\\MIUN\\quantitative_research\\video_compression\\videos\\BVI-HD\\BVI-HD_CDVL_videos\\ORIG\\PlasmaAveragePan_1920x1080_60fps.mp4':\n  Metadata:\n    major_brand     : isom\n    minor_version   : 512\n    compatible_brands: isomiso2avc1mp41\n    encoder         : Lavf54.28.101\n  Duration: 00:00:05.00, start: 0.000000, bitrate: 73730 kb/s\n  Stream #0:0[0x1](und): Video: h264 (High 4:4:4 Predictive) (avc1 / 0x31637661), yuv420p(progressive), 1920x1080, 73727 kb/s, 60 fps, 60 tbr, 60 tbn (default)\n    Metadata:\n      handler_name    : VideoHandler\n      vendor_id       : [0][0][0][0]\n[out#0/mp4 @ 000001a256c9a600] Codec AVOption b:a (set bitrate (in bits/s)) has not been used for any stream. The most likely reason is either wrong type (e.g. a video option with no video streams) or that it is a private option of some decoder which was not actually used for any stream.\nStream mapping:\n  Stream #0:0 -> #0:0 (h264 (native) -> h264 (libx264))\nPress [q] to stop, [?] for help\n[libx264 @ 000001a2575d0280] using cpu capabilities: MMX2 SSE2Fast SSSE3 SSE4.2 AVX FMA3 BMI2 AVX2\n[libx264 @ 000001a2575d0280] profile High, level 5.0, 4:2:0, 8-bit\n[libx264 @ 000001a2575d0280] 264 - core 165 r3222 b35605a - H.264/MPEG-4 AVC codec - Copyleft 2003-2025 - http://www.videolan.org/x264.html - options: cabac=1 ref=5 deblock=1:0:0 analyse=0x3:0x113 me=hex subme=8 psy=1 psy_rd=1.00:0.00 mixed_ref=1 me_range=16 chroma_me=1 trellis=2 8x8dct=1 cqm=0 deadzone=21,11 fast_pskip=1 chroma_qp_offset=-2 threads=18 lookahead_threads=3 sliced_threads=0 nr=0 decimate=1 interlaced=0 bluray_compat=0 constrained_intra=0 bframes=3 b_pyramid=2 b_adapt=1 b_bias=0 direct=3 weightb=1 open_gop=0 weightp=2 keyint=250 keyint_min=25 scenecut=40 intra_refresh=0 rc_lookahead=50 rc=cbr mbtree=1 bitrate=2000 ratetol=1.0 qcomp=0.60 qpmin=0 qpmax=69 qpstep=4 vbv_maxrate=2000 vbv_bufsize=2000 nal_hrd=none filler=0 ip_ratio=1.40 aq=1:1.00\nOutput #0, mp4, to 'C:\\Users\\Peter\\Desktop\\stuff\\MIUN\\quantitative_research\\video_compression\\compressed_videos\\BVI-HD\\h264\\2\\PlasmaAveragePan_1920x1080_60fps_h264.mp4':\n  Metadata:\n    major_brand     : isom\n    minor_version   : 512\n    compatible_brands: isomiso2avc1mp41\n    encoder         : Lavf62.3.100\n  Stream #0:0(und): Video: h264 (avc1 / 0x31637661), yuv420p(tv, progressive), 1920x1080, q=2-31, 2000 kb/s, 60 fps, 15360 tbn (default)\n    Metadata:\n      encoder         : Lavc62.11.100 libx264\n      handler_name    : VideoHandler\n      vendor_id       : [0][0][0][0]\n    Side data:\n      cpb: bitrate max/min/avg: 2000000/0/2000000 buffer size: 2000000 vbv_delay: N/A\nframe=    0 fps=0.0 q=0.0 size=       0KiB time=N/A bitrate=N/A speed=N/A elapsed=0:00:00.51    \nframe=   24 fps= 23 q=38.0 size=       0KiB time=00:00:00.30 bitrate=   1.3kbits/s speed=0.29x elapsed=0:00:01.03    \nframe=   72 fps= 46 q=38.0 size=       0KiB time=00:00:01.16 bitrate=   0.3kbits/s speed=0.745x elapsed=0:00:01.56    \nframe=  110 fps= 53 q=38.0 size=     256KiB time=00:00:01.80 bitrate=1165.3kbits/s speed=0.863x elapsed=0:00:02.08    \nframe=  151 fps= 57 q=39.0 size=     512KiB time=00:00:02.41 bitrate=1735.7kbits/s speed=0.905x elapsed=0:00:02.66    \nframe=  203 fps= 62 q=37.0 size=     768KiB time=00:00:03.28 bitrate=1916.3kbits/s speed=1.01x elapsed=0:00:03.25    \nframe=  264 fps= 69 q=37.0 size=     768KiB time=00:00:04.33 bitrate=1452.0kbits/s speed=1.14x elapsed=0:00:03.80    \n[mp4 @ 000001a256c9a700] Starting second pass: moving the moov atom to the beginning of the file\n[out#0/mp4 @ 000001a256c9a600] video:1171KiB audio:0KiB subtitle:0KiB other streams:0KiB global headers:0KiB muxing overhead: 0.373078%\nframe=  300 fps= 74 q=-1.0 Lsize=    1176KiB time=00:00:04.96 bitrate=1939.3kbits/s speed=1.23x elapsed=0:00:04.05    \n[libx264 @ 000001a2575d0280] frame I:3     Avg QP:23.17  size: 10760\n[libx264 @ 000001a2575d0280] frame P:75    Avg QP:34.82  size:  5917\n[libx264 @ 000001a2575d0280] frame B:222   Avg QP:36.54  size:  3255\n[libx264 @ 000001a2575d0280] consecutive B-frames:  1.0%  0.7%  1.0% 97.3%\n[libx264 @ 000001a2575d0280] mb I  I16..4: 39.3% 60.2%  0.4%\n[libx264 @ 000001a2575d0280] mb P  I16..4:  1.4%  6.9%  0.0%  P16..4:  6.8%  1.0%  0.3%  0.0%  0.0%    skip:83.5%\n[libx264 @ 000001a2575d0280] mb B  I16..4:  0.2%  0.6%  0.0%  B16..8: 10.8%  1.3%  0.1%  direct: 0.5%  skip:86.4%  L0:51.2% L1:45.3% BI: 3.5%\n[libx264 @ 000001a2575d0280] 8x8 transform intra:75.1% inter:99.3%\n[libx264 @ 000001a2575d0280] direct mvs  spatial:95.5% temporal:4.5%\n[libx264 @ 000001a2575d0280] coded y,uvDC,uvAC intra: 17.5% 51.8% 29.7% inter: 1.2% 5.1% 0.2%\n[libx264 @ 000001a2575d0280] i16 v,h,dc,p: 62% 17%  5% 16%\n[libx264 @ 000001a2575d0280] i8 v,h,dc,ddl,ddr,vr,hd,vl,hu: 19% 10% 34%  5%  7%  6%  8%  5%  6%\n[libx264 @ 000001a2575d0280] i4 v,h,dc,ddl,ddr,vr,hd,vl,hu:  9% 17% 10%  6% 19% 11% 17%  4%  8%\n[libx264 @ 000001a2575d0280] i8c dc,h,v,p: 63% 15% 13%  9%\n[libx264 @ 000001a2575d0280] Weighted P-Frames: Y:1.3% UV:1.3%\n[libx264 @ 000001a2575d0280] ref P L0: 51.2%  2.6% 21.2% 13.4% 11.4%  0.2%\n[libx264 @ 000001a2575d0280] ref B L0: 75.1% 15.0%  7.3%  2.6%\n[libx264 @ 000001a2575d0280] ref B L1: 94.2%  5.8%\n[libx264 @ 000001a2575d0280] kb/s:1917.95\n",
  "seconds": 4.262308597564697,
  "probe_out": {}
}